<?xml version="1.0" standalone="no"?>
<!DOCTYPE svg PUBLIC "-//W3C//DTD SVG 20010904//EN"
 "http://www.w3.org/TR/2001/REC-SVG-20010904/DTD/svg10.dtd">
<svg version="1.0" xmlns="http://www.w3.org/2000/svg"
 width="1024.000000pt" height="1024.000000pt" viewBox="0 0 1024.000000 1024.000000"
 preserveAspectRatio="xMidYMid meet">

<g transform="translate(0.000000,1024.000000) scale(0.100000,-0.100000)"
fill="#FFFFFF" stroke="#FFFFFF">
<path d="M0 5120 l0 -5120 5120 0 5120 0 0 5120 0 5120 -5120 0 -5120 0 0
-5120z m5583 3735 c454 -69 786 -174 1182 -376 316 -161 685 -423 929 -658
330 -320 571 -651 799 -1097 14 -28 49 -109 77 -180 28 -71 57 -143 65 -160
13 -30 83 -260 90 -294 2 -9 8 -34 14 -56 31 -113 64 -269 72 -349 5 -49 16
-139 24 -198 18 -128 20 -524 4 -667 -13 -116 -16 -147 -24 -230 -4 -35 -8
-67 -10 -71 -3 -3 -16 -62 -29 -130 -81 -400 -244 -821 -453 -1167 -200 -331
-416 -603 -674 -847 -392 -371 -935 -686 -1459 -846 -184 -57 -236 -70 -370
-94 -402 -74 -829 -86 -1175 -34 -476 72 -933 227 -1320 447 -101 57 -376 238
-475 311 -296 219 -609 557 -824 890 -184 285 -346 614 -431 881 -10 30 -26
78 -35 105 -17 48 -74 263 -84 315 -2 14 -11 54 -20 90 -8 36 -18 88 -21 115
-3 28 -8 57 -10 65 -6 21 -12 77 -26 220 -11 122 -8 562 5 710 11 123 70 399
126 590 17 58 39 134 49 170 38 137 156 401 270 605 268 477 631 899 1023
1187 387 285 799 497 1213 625 137 42 440 115 520 124 50 6 108 14 130 19 22
4 185 8 363 9 296 1 337 -1 485 -24z"/>
<path d="M4670 8705 c-224 -35 -408 -81 -626 -156 -225 -77 -312 -114 -529
-224 -273 -139 -581 -352 -809 -560 -440 -403 -782 -927 -983 -1510 -48 -139
-120 -423 -138 -545 -26 -177 -36 -298 -41 -495 -6 -199 -4 -257 15 -430 12
-110 28 -227 36 -260 7 -33 19 -85 25 -115 43 -210 138 -519 206 -667 233
-511 421 -794 758 -1141 302 -310 685 -577 1098 -764 167 -75 230 -99 393
-150 195 -60 316 -89 470 -113 55 -8 129 -21 165 -28 44 -8 181 -12 430 -11
326 0 379 3 495 22 156 26 225 40 285 57 25 7 69 19 99 25 141 32 412 133 606
225 391 186 729 428 1035 741 408 418 697 899 878 1464 67 209 133 542 153
780 21 232 1 662 -41 870 -6 30 -13 69 -16 85 -85 481 -343 1055 -668 1483
-64 86 -304 359 -338 387 -7 6 -51 46 -98 89 -361 333 -832 621 -1255 767
-147 50 -347 108 -470 134 -191 42 -270 48 -660 51 -290 2 -412 -1 -475 -11z
m508 -195 l23 0 -2 -197 c-1 -167 -4 -203 -18 -228 -25 -43 -64 -54 -99 -28
l-27 20 -3 223 -2 223 52 -6 c29 -4 63 -7 76 -7z m341 -156 c3 -173 -12 -297
-43 -375 -6 -13 3 -17 46 -23 29 -3 78 -11 108 -17 30 -5 69 -12 85 -15 66
-12 348 -95 442 -131 6 -3 14 10 18 29 4 18 13 46 21 63 16 40 38 92 54 133 7
17 14 32 17 32 15 0 103 -44 103 -52 0 -5 -25 -63 -55 -128 -30 -65 -55 -121
-55 -123 0 -6 101 -50 105 -45 2 2 56 102 121 223 64 121 118 222 120 224 10
11 253 -126 313 -176 l34 -29 -28 -42 c-15 -23 -32 -42 -37 -42 -5 0 -56 27
-112 60 -57 33 -107 60 -112 60 -9 0 -188 -330 -182 -334 2 -2 42 -29 91 -61
48 -32 89 -61 91 -64 2 -3 -11 -27 -28 -53 l-32 -47 -105 60 c-211 123 -370
193 -589 258 -58 17 -118 36 -135 41 -97 29 -354 70 -442 70 -106 0 -112 5
-60 51 85 74 113 194 104 450 -3 87 -4 159 -2 160 2 2 34 3 72 1 l70 -4 2
-154z m-639 -56 c0 -265 9 -307 85 -385 l51 -53 -31 -4 c-16 -3 -64 -7 -105
-10 -41 -3 -88 -8 -105 -12 -150 -28 -235 -46 -261 -54 -17 -6 -41 -12 -53
-15 -79 -15 -325 -99 -431 -147 -153 -70 -195 -91 -280 -143 -50 -30 -95 -55
-99 -55 -9 0 -61 82 -61 97 0 4 21 21 48 37 26 16 68 42 95 59 l47 29 -24 42
c-13 22 -52 93 -86 156 -34 63 -68 121 -75 128 -10 12 -32 2 -129 -54 -64 -37
-118 -65 -119 -63 -2 2 -18 23 -35 45 -18 23 -32 44 -32 47 0 13 328 207 350
207 9 0 92 -144 186 -325 37 -71 68 -131 70 -133 2 -4 104 47 104 52 0 2 -25
56 -55 120 -30 64 -55 122 -55 130 0 16 88 52 100 40 5 -5 23 -45 41 -89 36
-91 67 -155 75 -155 3 0 67 20 142 44 172 56 276 83 421 107 63 11 116 21 118
23 2 1 -4 22 -12 47 -23 71 -35 190 -35 350 l0 149 75 0 75 0 0 -212z m-320
144 c0 -15 4 -42 9 -60 9 -30 7 -34 -14 -42 -12 -5 -42 -12 -66 -15 -24 -4
-50 -10 -59 -15 -8 -4 -32 -11 -54 -14 -21 -4 -43 -9 -50 -13 -13 -8 -14 -9
-76 -22 -68 -15 -320 -105 -378 -135 -44 -23 -47 -21 -76 28 -29 49 -32 71
-13 79 132 55 286 112 377 141 63 20 130 41 147 47 35 11 206 46 236 48 12 1
17 -7 17 -27z m1327 -12 c214 -51 579 -184 590 -216 2 -5 -10 -31 -27 -57
l-30 -47 -37 16 c-152 66 -356 132 -571 184 -124 30 -133 34 -128 54 3 11 6
40 6 63 l0 42 38 -6 c20 -2 92 -18 159 -33z m-1303 -242 c13 -73 17 -143 7
-128 -8 12 -11 12 -11 1 0 -7 -6 -11 -15 -7 -8 3 -15 0 -16 -7 0 -9 -2 -9 -6
1 -2 6 -9 12 -14 12 -4 0 -6 -7 -3 -15 4 -8 2 -15 -4 -15 -6 0 -12 6 -15 13
-3 8 -9 6 -19 -7 -30 -39 -47 -14 -65 99 -3 17 -6 34 -6 39 -2 10 49 25 154
45 4 0 9 -14 13 -31z m1189 11 c31 -6 57 -15 57 -19 0 -4 -7 -39 -16 -78 l-16
-71 -32 5 c-17 3 -44 6 -61 8 -16 2 -36 4 -42 5 -16 1 -16 26 -1 108 10 58 14
64 32 59 12 -3 47 -11 79 -17z m-1482 -126 c17 -86 17 -88 -1 -88 -8 0 -18 -4
-22 -10 -5 -6 -8 -5 -8 3 0 6 -9 12 -20 12 -11 0 -20 5 -20 11 0 5 -5 7 -12 3
-8 -5 -4 -11 14 -19 l26 -10 -24 -12 c-16 -7 -22 -7 -17 -1 4 7 1 8 -8 2 -27
-17 -36 -11 -57 35 -38 89 -37 92 48 122 41 15 78 25 81 23 4 -2 13 -34 20
-71z m1769 48 c36 -10 65 -22 65 -27 -1 -22 -39 -135 -47 -140 -5 -3 -8 -2 -7
3 1 4 1 15 0 23 -1 13 -2 13 -11 0 -5 -8 -10 -10 -10 -5 0 6 -4 4 -9 -4 -13
-20 -45 -6 -37 17 4 11 0 10 -10 -5 -13 -18 -20 -20 -39 -11 -21 9 -22 13 -13
52 32 134 21 124 118 97z m-2830 -354 c36 -50 99 -141 141 -202 41 -60 94
-137 118 -170 l42 -60 -67 -3 c-37 -2 -72 -1 -79 2 -11 4 -74 89 -198 267 -26
38 -51 69 -56 69 -11 0 -188 -149 -324 -274 l-119 -109 -40 41 -41 40 69 76
c38 42 116 119 174 171 103 91 296 245 309 245 3 0 35 -42 71 -93z m3975 1
c118 -91 415 -374 415 -396 0 -6 -15 -26 -33 -46 l-33 -35 -90 82 c-162 149
-339 297 -355 297 -4 0 -32 -37 -63 -82 -30 -46 -78 -116 -106 -156 -29 -41
-49 -77 -44 -81 5 -5 63 -56 130 -114 67 -58 131 -117 143 -132 11 -15 44 -53
73 -84 28 -31 90 -108 136 -171 108 -146 98 -136 119 -118 10 8 81 54 158 101
77 48 146 91 154 96 11 7 -3 33 -67 124 -45 63 -83 120 -86 128 -2 8 13 29 34
47 l38 33 54 -68 c55 -69 165 -229 187 -271 11 -21 5 -26 -118 -107 -72 -46
-199 -126 -283 -176 -143 -85 -153 -90 -165 -73 -7 11 -44 66 -82 124 -140
212 -319 410 -502 556 l-109 87 16 26 c9 14 54 78 99 141 45 63 119 170 165
238 46 67 87 122 90 122 3 0 59 -42 125 -92z m-3636 7 c37 -63 36 -77 -7 -107
-21 -15 -43 -28 -49 -30 -6 -2 -27 21 -48 51 -29 42 -34 56 -24 62 8 4 30 19
49 33 46 33 54 32 79 -9z m3181 20 c7 -8 18 -15 25 -15 6 0 20 -9 29 -19 17
-18 16 -21 -19 -68 -21 -26 -41 -49 -45 -51 -11 -4 -90 48 -90 59 0 5 12 31
28 59 28 51 50 62 72 35z m-1540 -310 l0 -155 -90 0 -90 0 0 155 0 155 90 0
90 0 0 -155z m-362 -8 l3 -147 -447 0 c-401 0 -445 2 -434 15 41 49 416 195
630 246 85 20 213 38 235 34 6 -1 11 -61 13 -148z m654 143 c137 -16 297 -58
473 -123 202 -76 366 -159 510 -258 64 -44 180 -142 146 -124 -9 5 -12 4 -7
-3 4 -6 14 -8 23 -5 11 4 14 2 11 -8 -3 -8 -1 -22 4 -31 6 -14 5 -16 -7 -12
-11 5 -14 2 -8 -12 4 -12 3 -15 -5 -10 -8 5 -12 0 -12 -14 0 -15 -5 -20 -14
-17 -10 4 -13 1 -10 -7 3 -8 0 -17 -6 -21 -14 -9 -52 24 -43 38 3 5 1 7 -4 4
-6 -4 -42 14 -79 39 -93 62 -309 167 -419 203 -158 52 -233 63 -455 66 l-205
4 0 143 c0 79 1 146 3 151 4 9 -1 9 104 -3z m-2364 -189 l31 -39 -39 -30 -38
-31 -31 36 -31 37 32 33 c17 18 35 33 38 33 4 0 21 -17 38 -39z m4046 3 l39
-35 -34 -35 c-18 -19 -37 -34 -41 -34 -5 0 -24 14 -43 31 l-34 31 31 39 c17
22 34 39 37 39 3 0 23 -16 45 -36z m-4219 -159 l37 -46 -49 -47 c-55 -53 -130
-141 -187 -219 -21 -29 -42 -53 -46 -53 -5 0 -25 11 -45 24 -20 14 -41 26 -47
28 -8 3 -6 12 5 29 25 35 108 119 129 130 10 5 18 17 18 25 0 9 -5 12 -12 8
-7 -4 -4 3 7 17 33 41 139 149 146 149 4 0 23 -20 44 -45z m4435 -21 c21 -24
82 -99 208 -255 l23 -28 -33 -17 c-18 -9 -35 -20 -38 -23 -3 -3 -12 -12 -21
-19 -14 -10 -18 -10 -22 2 -4 10 -1 13 9 9 7 -3 14 -1 14 4 0 5 16 17 35 26
31 15 34 20 25 37 -6 11 -16 17 -22 14 -6 -4 -8 -3 -4 4 3 6 2 13 -4 17 -5 3
-10 1 -10 -5 0 -14 -92 -2 -102 14 -5 7 -8 5 -8 -5 0 -8 16 -21 35 -29 33 -13
47 -30 25 -30 -5 0 -10 -8 -10 -17 0 -10 -13 0 -32 27 -18 25 -32 48 -30 53 1
5 -2 6 -7 3 -13 -8 -34 21 -25 35 4 7 3 9 -3 6 -5 -3 -42 30 -82 73 l-72 80
37 44 37 45 26 -18 c14 -11 37 -32 51 -47z m-4827 -93 c-9 -14 -46 -70 -81
-124 -36 -53 -63 -99 -61 -101 2 -2 60 -39 129 -81 69 -43 144 -91 167 -107
23 -15 44 -28 47 -28 4 0 23 26 43 58 55 86 187 247 278 337 l80 80 5 -100 5
-100 -65 -70 c-82 -88 -184 -220 -239 -307 -24 -38 -46 -68 -51 -68 -12 0
-565 339 -568 349 -3 10 157 250 211 314 l40 48 38 -37 c38 -37 38 -38 22 -63z
m3263 -76 c355 -62 684 -295 863 -612 87 -154 127 -286 144 -476 13 -158 3
-244 -49 -395 -62 -181 -119 -277 -238 -395 l-72 -73 70 -69 c123 -123 232
-317 276 -491 40 -157 36 -381 -9 -557 -38 -146 -127 -326 -230 -461 -175
-232 -476 -407 -764 -446 -50 -6 -406 -10 -968 -10 l-889 0 0 415 0 415 70 0
70 0 0 -335 0 -336 863 4 c946 3 876 -1 1062 62 221 75 471 309 575 539 80
177 105 303 97 491 -8 167 -27 246 -95 382 -70 142 -144 236 -276 349 l-59 51
47 32 c159 110 294 316 355 544 26 94 29 294 6 400 -38 179 -135 356 -274 500
-173 179 -379 287 -604 317 -49 6 -384 10 -888 10 l-809 0 -1 -172 c0 -95 -2
-200 -4 -233 -2 -33 -4 -77 -4 -97 -1 -31 -4 -36 -18 -32 -16 5 -15 3 1 -10
27 -22 12 -32 -19 -12 -14 9 -25 12 -25 7 0 -5 9 -13 20 -16 11 -4 18 -11 14
-16 -4 -6 -11 -6 -20 2 -8 6 -14 7 -14 3 0 -5 9 -15 20 -22 17 -10 20 -10 20
3 0 8 4 15 9 15 6 0 9 -8 8 -18 -1 -21 -37 -27 -49 -9 -6 9 -8 9 -8 1 0 -7
-15 -12 -35 -12 l-35 0 0 309 0 310 -77 -3 -78 -3 -3 -1917 -2 -1918 -75 0
-75 0 0 1920 0 1921 -62 -3 -63 -3 -3 -1917 -2 -1918 -75 0 -75 0 0 2000 0
2000 1184 0 c1022 0 1195 -2 1272 -15z m849 -5 c3 -6 -1 -7 -9 -4 -18 7 -21
14 -7 14 6 0 13 -4 16 -10z m152 -125 l34 -34 -43 -55 c-56 -71 -66 -75 -100
-34 -15 18 -28 37 -28 42 0 10 88 116 97 116 3 0 21 -16 40 -35z m-1069 -130
c117 -17 188 -41 292 -96 215 -115 373 -294 464 -526 98 -252 64 -512 -99
-758 -84 -125 -247 -251 -390 -300 -16 -5 -6 -13 50 -39 214 -100 394 -314
464 -553 49 -165 34 -422 -33 -582 -85 -201 -272 -408 -451 -498 -49 -25 -211
-77 -285 -92 -91 -18 -298 -19 -270 -1 8 5 33 12 55 16 67 11 245 74 339 121
248 122 426 314 506 547 10 31 24 101 30 155 24 206 -26 386 -157 558 -101
133 -248 230 -417 273 -76 19 -110 20 -773 20 l-693 0 0 -730 0 -730 458 0
c492 1 528 4 636 53 65 30 60 32 107 -41 26 -40 18 -52 -55 -85 -166 -76 -168
-77 -768 -77 l-528 0 -2 713 c-1 391 -2 1132 -3 1645 l0 933 565 -3 c539 -4
568 -5 631 -25 84 -26 179 -73 179 -88 0 -6 -14 -33 -30 -59 -24 -37 -35 -46
-48 -40 -9 4 -48 19 -87 33 l-70 26 -490 0 -490 0 -3 -682 -2 -683 725 0 c706
0 727 1 802 21 126 34 207 82 304 180 136 136 195 274 206 479 5 88 2 118 -15
182 -30 109 -63 177 -125 260 -144 195 -350 334 -639 433 -72 25 -134 48 -137
50 -10 11 155 4 247 -10z m1228 -41 c4 -14 3 -46 0 -72 -11 -72 -12 -121 -2
-115 4 3 5 -5 1 -18 -5 -13 -8 -37 -7 -54 0 -16 -5 -36 -11 -44 -10 -12 -9
-13 2 -7 9 6 12 5 9 -4 -9 -29 -25 -18 -54 37 -49 92 -75 137 -85 148 -5 5 -9
13 -9 18 0 14 122 137 136 137 8 0 17 -12 20 -26z m-4691 -62 c55 -32 161 -96
235 -142 74 -45 154 -95 177 -109 24 -14 43 -31 43 -37 0 -6 -24 -62 -54 -125
-85 -179 -164 -430 -197 -621 -10 -59 -14 -68 -33 -68 -11 0 -127 18 -256 41
-129 22 -264 45 -300 50 -89 13 -100 17 -100 40 0 30 46 238 76 342 49 168
168 467 187 467 18 0 288 -147 366 -199 13 -8 12 -15 -4 -50 -10 -23 -20 -41
-22 -41 -2 0 -65 29 -140 65 -75 36 -138 63 -140 61 -6 -6 -81 -206 -78 -206
2 0 -2 -19 -11 -41 -8 -23 -16 -51 -19 -63 -2 -12 -13 -57 -24 -101 -36 -151
-38 -141 22 -154 166 -35 360 -72 362 -69 2 2 6 21 9 43 4 22 11 54 16 70 5
17 11 42 14 56 13 77 127 382 163 439 15 23 15 25 -11 44 -15 11 -118 74 -229
139 -111 65 -206 122 -210 126 -7 7 41 100 53 101 3 0 50 -26 105 -58z m5755
26 c10 -18 24 -39 30 -46 7 -7 10 -14 9 -15 -2 -1 -18 -12 -36 -25 -18 -12
-35 -22 -39 -22 -4 0 -22 -11 -40 -25 -18 -14 -35 -25 -37 -25 -10 0 -273
-163 -316 -196 -2 -2 1 -9 7 -17 19 -23 110 -244 140 -340 16 -51 37 -134 47
-185 18 -91 19 -93 44 -88 14 3 44 8 66 12 36 5 243 45 303 59 22 5 23 9 17
48 -8 43 -10 56 -25 117 -5 19 -13 55 -19 80 -5 25 -28 92 -50 150 -58 153
-65 170 -71 170 -3 0 -63 -29 -133 -65 -71 -36 -133 -62 -139 -59 -16 10 -40
76 -31 84 4 5 31 21 58 36 28 15 68 38 90 50 79 46 224 118 228 114 20 -24
114 -255 150 -371 66 -213 115 -428 102 -449 -3 -4 -26 -11 -52 -15 -27 -3
-75 -13 -108 -20 -73 -17 -257 -52 -305 -59 -19 -3 -59 -10 -89 -16 -53 -10
-121 -14 -121 -6 0 9 -41 205 -56 266 -27 112 -84 270 -145 404 -32 70 -59
132 -59 136 0 10 534 348 553 349 4 1 16 -14 27 -31z m-4878 -315 l3 -182 -25
16 c-67 43 -170 125 -169 136 0 18 77 137 134 209 59 74 53 93 57 -179z m3956
147 c7 -11 13 -23 14 -27 1 -5 10 -17 20 -28 11 -11 29 -39 42 -61 22 -39 22
-43 7 -59 -15 -16 -14 -17 8 -5 l24 12 -22 -31 c-13 -17 -27 -29 -32 -25 -5 3
-6 10 -3 16 4 7 2 8 -4 4 -6 -4 -9 -13 -6 -20 7 -17 -77 -98 -94 -91 -7 3 -10
0 -7 -5 3 -6 2 -10 -3 -10 -14 0 -15 306 -2 330 14 26 42 25 58 0z m-1276 -69
c35 -32 71 -72 80 -89 l18 -30 -56 -46 -56 -45 -35 47 c-19 26 -51 64 -71 84
l-35 37 33 50 c17 28 38 51 46 51 7 0 42 -27 76 -59z m-422 -153 c89 -43 181
-129 224 -208 33 -61 66 -177 65 -235 0 -93 -44 -210 -115 -306 -42 -57 -90
-97 -161 -133 -97 -48 -165 -56 -509 -56 l-314 0 0 74 0 75 333 4 c221 2 344
8 369 16 101 33 192 129 228 241 18 56 20 74 11 126 -5 33 -16 76 -24 95 -23
56 -101 134 -164 165 -55 26 -66 28 -235 32 l-178 4 0 75 0 75 198 -4 197 -3
75 -37z m-670 -263 l0 -285 -70 0 -70 0 0 285 0 285 70 0 70 0 0 -285z m1422
188 c30 -34 98 -184 113 -246 14 -64 15 -83 2 -104 -4 -6 -3 -15 3 -18 8 -5 7
-11 -1 -21 -6 -8 -8 -14 -3 -14 4 0 -1 -7 -12 -15 -18 -13 -18 -14 6 -9 19 4
22 3 10 -5 -8 -5 -11 -13 -7 -17 4 -4 0 -18 -9 -32 -9 -14 -11 -21 -4 -17 7 4
11 4 9 -1 -3 -5 -13 -33 -24 -61 -11 -29 -23 -53 -28 -53 -4 0 -5 -5 -1 -12 4
-6 3 -8 -3 -5 -6 4 -13 -2 -16 -13 -3 -11 -11 -20 -19 -20 -10 0 -9 3 2 11 12
8 12 10 1 7 -8 -2 -15 -12 -17 -21 -1 -11 2 -14 9 -10 7 4 -1 -7 -18 -25 -16
-17 -30 -30 -31 -29 -1 1 7 47 17 102 24 130 24 385 0 538 -18 110 -14 129 21
90z m-3216 -69 c63 -38 155 -105 185 -135 15 -15 19 -34 19 -89 0 -38 -3 -70
-8 -70 -4 0 -21 14 -37 32 -47 50 -137 112 -214 148 -39 19 -71 38 -71 43 0
19 45 107 56 107 5 0 37 -16 70 -36z m4390 -21 l22 -52 -51 -27 c-67 -34 -95
-54 -189 -131 l-78 -64 0 69 c0 40 5 74 13 83 28 35 236 181 250 176 6 -2 20
-26 33 -54z m-5064 10 c49 -20 67 -32 64 -43 -2 -8 -16 -55 -31 -105 -15 -49
-32 -108 -39 -131 -11 -40 -12 -40 -44 -32 -22 6 -30 13 -25 21 5 9 4 9 -8 0
-9 -7 -20 -8 -29 -3 -8 5 -19 6 -25 2 -5 -3 -3 3 5 13 14 17 14 18 -7 7 -12
-7 -24 -12 -26 -12 -10 0 62 272 80 303 6 11 11 10 85 -20z m5726 1 c2 -10 7
-28 12 -39 20 -42 32 -81 37 -115 3 -19 9 -39 13 -45 9 -13 11 -73 2 -78 -20
-12 -63 -17 -57 -7 9 15 -1 12 -18 -4 -7 -8 -27 -16 -42 -18 -28 -3 -30 -1
-47 67 -10 39 -28 98 -39 133 -12 35 -19 65 -17 67 10 10 134 63 143 61 6 -2
11 -11 13 -22z m-3920 -161 l-3 -58 -65 0 -65 0 -3 58 -3 57 71 0 71 0 -3 -57z
m3348 -84 c19 -61 18 -62 -18 -78 -105 -45 -229 -157 -268 -241 -23 -50 -24
-50 -72 -50 -26 0 -48 2 -48 5 0 3 9 33 21 67 31 92 103 186 194 253 51 38
157 95 169 92 5 -2 15 -23 22 -48z m-4536 -7 c150 -84 257 -213 262 -318 l3
-49 -37 -3 c-36 -3 -38 -2 -67 56 -39 77 -126 157 -230 211 -89 46 -87 43 -66
124 10 39 36 35 135 -21z m3120 -96 c0 -92 -6 -119 -24 -109 -8 4 -8 3 0 -6
15 -16 6 -51 -12 -51 -18 0 -27 -17 -13 -26 8 -4 9 -3 5 4 -4 7 -2 12 3 12 13
0 14 -13 4 -24 -5 -4 -8 -13 -8 -19 0 -11 -18 -14 -40 -6 -5 2 -10 0 -10 -6 0
-5 5 -9 11 -7 7 1 16 -3 20 -9 4 -8 3 -9 -4 -5 -7 4 -12 2 -12 -4 0 -6 -4 -9
-10 -5 -5 3 -8 -6 -6 -23 3 -20 0 -29 -10 -29 -10 0 -11 4 -3 13 6 7 7 19 3
26 -5 7 -9 16 -9 20 0 3 -3 9 -7 12 -5 3 -6 3 -3 -1 8 -11 -16 -33 -29 -26 -6
4 -5 -1 3 -10 10 -13 17 -15 27 -6 17 14 19 -2 2 -19 -8 -8 -15 -9 -25 0 -11
9 -12 7 -7 -8 7 -18 7 -18 -13 -1 -12 10 -24 14 -27 9 -8 -14 33 -63 47 -56 7
3 4 -1 -5 -9 -10 -8 -14 -18 -10 -23 4 -5 3 -5 -3 -1 -6 5 -11 13 -11 18 -1 5
-2 12 -3 16 0 3 -10 -2 -21 -12 -13 -11 -18 -25 -14 -37 3 -10 0 -18 -6 -18
-6 0 -8 -5 -4 -12 5 -8 2 -9 -9 -5 -12 4 -17 1 -17 -10 0 -14 -3 -14 -21 3
-22 19 -22 19 -15 -6 6 -19 5 -21 -3 -10 -9 13 -12 13 -23 1 -10 -10 -10 -12
0 -7 6 4 12 2 12 -4 0 -6 -8 -10 -17 -8 -10 2 -24 -3 -31 -12 -11 -13 -11 -13
-7 1 4 10 0 16 -10 16 -8 0 -14 -7 -13 -15 2 -8 -4 -17 -12 -19 -12 -4 -12 -3
-1 5 8 6 10 12 3 16 -6 4 -14 0 -19 -8 -9 -17 -43 -24 -60 -13 -9 6 -11 3 -7
-7 4 -11 0 -13 -16 -9 -24 6 -26 5 23 32 21 12 44 18 50 15 7 -4 9 -4 5 1 -4
4 21 29 56 56 135 102 236 289 236 438 0 36 2 38 48 53 74 25 72 27 72 -66z
m-1930 -66 l0 -60 -70 0 -70 0 0 60 0 60 70 0 70 0 0 -60z m3418 -111 c7 -37
12 -71 12 -78 0 -7 -36 -11 -115 -11 -63 0 -115 4 -115 8 0 25 187 170 201
154 3 -4 11 -37 17 -73z m-4704 27 c50 -32 106 -88 106 -107 0 -5 -53 -9 -119
-9 l-118 0 4 28 c20 125 23 134 50 127 14 -3 49 -21 77 -39z m-956 -111 c30
-6 32 -10 32 -46 0 -21 -4 -39 -8 -39 -4 0 -8 -15 -7 -32 0 -18 -4 -37 -10
-41 -6 -6 -6 -10 3 -14 20 -8 14 -26 -8 -20 -11 3 -20 1 -20 -4 0 -5 7 -9 15
-9 24 0 17 -20 -7 -21 l-23 -2 23 -4 c31 -6 28 -23 -5 -23 -28 0 -26 -10 3
-14 30 -5 28 -26 -3 -27 -23 -1 -24 -2 -5 -6 46 -9 21 -24 -35 -21 l-58 3 2
50 c5 83 24 237 34 262 6 17 15 23 27 19 9 -2 32 -7 50 -11z m6577 -2 c14 -37
15 -87 3 -95 -10 -5 -8 -8 5 -8 9 0 17 -4 17 -10 0 -5 -7 -10 -15 -10 -8 0
-15 -4 -15 -10 0 -5 6 -7 14 -4 8 3 17 0 21 -6 4 -7 -2 -14 -14 -17 -27 -7
-27 -23 -1 -23 28 0 25 -20 -2 -21 l-23 -2 23 -4 c37 -7 27 -33 -14 -33 -22 0
-33 -4 -29 -11 4 -6 19 -7 36 -4 22 5 29 3 29 -9 0 -9 -6 -16 -12 -16 -9 0 -8
-3 2 -10 8 -5 12 -12 9 -15 -9 -8 -109 -19 -109 -12 0 4 -7 55 -15 114 -8 59
-17 129 -19 156 -4 51 -9 46 59 60 37 8 43 7 50 -10z m-4335 -68 l0 -55 -70 0
-70 0 0 55 0 55 70 0 70 0 0 -55z m1787 -8 c3 1 9 6 12 12 4 6 12 7 21 1 13
-8 12 -10 -3 -10 -10 0 -16 -4 -13 -8 3 -5 -5 -8 -16 -7 -12 1 -29 12 -37 26
l-15 24 23 -20 c13 -11 25 -19 28 -18z m-41 -65 c1 -7 0 -8 -3 -2 -2 5 -9 8
-14 4 -5 -3 -9 0 -9 6 0 15 23 7 26 -8z m-3502 -7 c92 -15 187 -90 227 -179
28 -63 26 -195 -5 -261 -32 -70 -106 -140 -170 -161 -65 -22 -157 -22 -221 -1
-146 49 -239 213 -205 359 33 137 107 216 227 243 57 12 71 12 147 0z m5743
-28 c67 -35 137 -121 159 -196 52 -174 -76 -369 -258 -395 -62 -9 -161 11
-218 44 -56 33 -116 110 -135 174 -48 159 29 327 176 385 78 31 203 25 276
-12z m-4909 -84 l3 -73 -185 0 -184 0 -25 75 -24 75 206 -2 206 -3 3 -72z
m4268 60 c-4 -9 -15 -43 -24 -75 l-17 -58 -273 0 -273 0 26 43 c14 23 34 57
42 75 l17 32 254 0 c236 0 254 -1 248 -17z m-3348 -120 l3 -53 -70 0 -71 0 0
55 0 56 68 -3 67 -3 3 -52z m-2288 -113 c0 -5 -15 -11 -32 -13 -29 -3 -27 -4
10 -5 23 -1 42 -6 42 -12 0 -5 7 -10 15 -10 21 0 19 -20 -2 -21 -15 0 -15 -2
2 -9 14 -6 1 -9 -45 -9 l-65 -1 3 43 c4 41 5 43 38 44 19 1 34 -3 34 -7z m50
0 c0 -5 -9 -10 -20 -10 -11 0 -20 5 -20 10 0 6 9 10 20 10 11 0 20 -4 20 -10z
m6618 -22 c3 -23 -1 -28 -20 -29 l-23 -2 23 -4 c12 -2 22 -10 22 -16 0 -10
-70 -14 -120 -8 -3 1 -4 21 -2 45 l4 44 56 -1 c54 -2 57 -3 60 -29z m-4380
-133 c-2 -30 -6 -55 -10 -55 -5 0 -35 0 -68 0 l-60 0 0 55 0 55 70 0 71 0 -3
-55z m-2238 30 c0 -12 -13 -15 -60 -15 -47 0 -60 3 -60 15 0 12 13 15 60 15
47 0 60 -3 60 -15z m6622 3 c-7 -7 -33 -15 -60 -19 l-47 -6 48 -2 c32 -1 47
-5 47 -14 0 -9 -11 -13 -30 -12 -16 1 -35 -2 -42 -6 -8 -5 7 -9 37 -9 48 0 53
-12 10 -23 -19 -5 -19 -5 3 -12 37 -12 25 -25 -25 -27 l-48 -1 44 -6 c54 -7
68 -31 19 -32 l-33 -1 32 -11 c24 -9 30 -16 24 -26 -5 -7 -13 -11 -18 -8 -5 3
-15 2 -23 -4 -11 -6 -8 -9 13 -9 18 0 27 -5 27 -16 0 -11 -6 -15 -20 -11 -11
3 -20 1 -20 -4 0 -5 9 -9 20 -9 11 0 20 -4 20 -10 0 -5 -4 -10 -10 -10 -5 0
-7 -7 -4 -15 4 -10 0 -15 -12 -16 -18 -1 -18 -2 -1 -6 24 -6 16 -29 -9 -26
-63 7 -108 14 -111 17 -2 2 1 25 6 52 9 48 25 154 36 247 l6 47 67 0 c51 0 63
-3 54 -12z m-6628 -37 c19 -7 18 -8 -5 -15 l-24 -8 25 -8 25 -8 -22 -7 c-28
-9 -31 -25 -3 -18 11 3 20 1 20 -5 0 -12 -76 -26 -105 -20 -13 2 -19 15 -22
45 -4 41 -3 42 29 46 53 6 62 6 82 -2z m1326 -66 l0 -75 -205 0 c-206 0 -222
1 -218 10 2 3 15 35 30 73 l27 67 183 0 183 0 0 -75z m4231 38 c6 -21 20 -54
30 -74 l18 -36 -45 -6 c-26 -2 -140 -2 -254 1 l-208 5 -15 31 c-9 17 -28 50
-42 74 l-26 42 265 0 264 0 13 -37z m-1803 -18 c209 -49 368 -225 412 -455 23
-116 26 -213 8 -228 -14 -10 -36 -10 -80 3 -26 7 -28 11 -28 59 0 240 -146
454 -404 588 l-91 47 60 1 c33 0 88 -7 123 -15z m-3738 -59 c0 -8 -8 -17 -17
-19 -13 -3 -12 -5 5 -6 37 -2 15 -21 -26 -23 -36 -1 -36 -1 8 -8 44 -6 44 -6
15 -14 -49 -13 -52 -16 -12 -13 43 3 50 -10 10 -19 -46 -10 -50 -14 -10 -11
41 3 53 -18 15 -26 -20 -4 -19 -4 5 -6 17 0 27 -7 27 -16 0 -8 1 -18 3 -22 2
-7 -104 -33 -114 -27 -11 7 -32 195 -23 204 5 5 29 10 54 13 25 2 48 4 53 5 4
1 7 -4 7 -12z m3470 -41 c154 -63 290 -200 342 -343 17 -46 21 -82 22 -187 1
-122 -1 -134 -27 -189 -37 -81 -108 -178 -162 -221 -24 -20 -77 -51 -117 -68
-70 -29 -82 -30 -251 -36 -98 -3 -181 -4 -183 -2 -2 2 -4 37 -4 76 l0 73 158
5 c115 3 170 9 207 22 146 52 238 186 239 350 1 72 -3 88 -35 155 -44 92 -110
162 -187 198 l-57 27 -330 6 c-181 3 -331 6 -332 7 -2 1 -3 36 -3 78 l0 76
338 -4 c299 -4 342 -6 382 -23z m-1240 -110 l0 -55 -70 0 -70 0 0 55 0 55 70
0 70 0 0 -55z m-1196 -98 c-10 -27 -178 -147 -189 -135 -2 1 -4 19 -6 38 -2
19 -6 40 -10 45 -3 6 -9 22 -13 38 l-6 27 114 0 c92 0 114 -3 110 -13z m276
-1 c0 -7 -16 -45 -35 -83 -47 -93 -162 -205 -265 -256 -40 -21 -78 -37 -85
-37 -11 0 -45 72 -45 95 0 6 38 29 85 53 105 54 173 114 211 187 l29 55 53 0
c37 0 52 -4 52 -14z m4008 -50 c52 -80 116 -137 198 -177 84 -42 87 -46 68
-102 -9 -26 -18 -47 -20 -47 -15 0 -130 66 -191 109 -80 57 -143 129 -179 206
-34 71 -32 75 29 75 l53 0 42 -64z m335 37 c-9 -55 -12 -57 -38 -29 -27 29
-33 31 -55 15 -12 -8 -10 -9 7 -4 30 8 63 -29 63 -72 l0 -33 -47 24 c-27 13
-70 47 -98 75 l-49 51 110 0 111 0 -4 -27z m-5021 -62 c9 -78 58 -274 99 -391
16 -47 31 -92 33 -100 7 -24 22 -60 54 -130 54 -115 54 -111 -30 -168 -80 -54
-269 -165 -273 -160 -1 2 -14 22 -28 45 l-26 41 77 48 c93 58 184 125 180 133
-2 3 -19 38 -39 76 -42 81 -73 173 -133 388 l-43 152 -39 -3 c-58 -5 -348 -63
-357 -72 -11 -10 47 -242 96 -383 11 -31 18 -59 16 -60 -25 -17 -102 -48 -110
-45 -23 8 -133 365 -155 502 -3 22 -10 50 -15 63 -10 27 -18 24 111 52 228 50
435 81 525 78 l50 -2 7 -64z m5523 38 c142 -22 367 -68 383 -78 24 -15 -109
-517 -153 -578 -13 -17 -15 -17 -59 5 -26 12 -49 28 -52 36 -3 8 13 69 35 137
36 111 71 255 71 292 0 9 -35 21 -112 36 -98 20 -278 50 -300 51 -5 0 -8 -11
-8 -25 0 -33 -43 -215 -70 -296 -12 -35 -44 -117 -72 -181 -27 -65 -48 -124
-45 -130 2 -7 56 -43 118 -80 63 -38 120 -72 127 -77 11 -7 9 -17 -12 -50 -15
-22 -31 -41 -37 -41 -20 0 -324 173 -352 200 -5 4 1 26 12 48 100 197 216 586
220 741 1 24 1 24 89 17 48 -3 146 -16 217 -27z m-1815 -26 c25 -32 84 -153
77 -159 -3 -3 1 -29 8 -57 14 -54 16 -87 6 -87 -3 0 -6 -29 -6 -65 0 -36 -3
-65 -7 -65 -4 0 -4 -7 -1 -17 5 -12 3 -14 -8 -8 -12 8 -12 6 0 -8 11 -14 11
-18 -3 -23 -9 -3 -13 -11 -9 -17 4 -7 0 -8 -12 -3 -13 5 -15 3 -8 -6 12 -15 2
-59 -12 -59 -5 1 -18 -2 -27 -5 -14 -4 -16 -9 -8 -24 15 -28 12 -36 -5 -14
-15 18 -15 18 -8 0 4 -12 3 -17 -4 -13 -10 6 -29 -37 -25 -55 1 -5 -3 -8 -9
-8 -6 0 -8 7 -5 17 7 17 9 29 26 156 19 147 12 399 -16 520 -5 23 -3 27 14 27
11 0 30 -12 42 -27z m-2110 -108 l0 -55 -70 0 -70 0 0 55 0 55 70 0 70 0 0
-55z m660 -320 l0 -345 -70 0 -70 0 0 345 0 345 70 0 70 0 0 -345z m-2480 220
c0 -3 9 -40 21 -83 46 -171 47 -177 37 -192 -8 -13 -9 -12 -4 2 3 10 0 20 -6
24 -6 4 -8 3 -5 -3 4 -6 -1 -17 -10 -24 -15 -12 -16 -12 -10 5 6 16 5 17 -8 6
-8 -7 -12 -17 -8 -24 3 -6 3 -8 -2 -4 -4 4 -21 -4 -38 -18 -30 -25 -37 -26
-41 -2 -1 7 -16 58 -34 113 -17 55 -34 117 -37 137 -8 41 -11 39 85 57 60 12
60 12 60 6z m5763 -11 c46 -5 57 -10 53 -23 -11 -36 -28 -107 -32 -127 -2 -12
-11 -38 -19 -58 -8 -20 -12 -36 -9 -36 4 0 1 -7 -6 -15 -6 -8 -9 -18 -6 -23 3
-6 -1 -15 -8 -22 -18 -14 -60 5 -50 22 5 7 0 9 -14 6 -12 -4 -20 -2 -16 3 5 9
-9 13 -35 10 -7 -2 -10 2 -6 8 3 7 0 8 -9 5 -20 -8 -20 -7 8 84 14 42 27 93
31 112 12 67 15 72 39 66 12 -3 48 -8 79 -12z m-4935 -181 c-35 -36 -85 -81
-113 -101 -27 -20 -59 -45 -69 -54 -31 -28 -44 -22 -71 32 -14 27 -25 51 -25
53 0 3 39 27 88 55 48 28 123 83 167 121 l80 70 3 -56 3 -56 -63 -64z m4124
35 c29 -19 76 -48 103 -63 28 -15 51 -28 53 -29 1 -2 -4 -16 -12 -32 -8 -16
-19 -41 -25 -56 -6 -16 -14 -28 -19 -28 -5 0 -64 40 -133 88 l-124 88 -3 83
-3 84 55 -50 c30 -27 78 -66 108 -85z m-3132 2 l0 -50 -70 0 -70 0 0 50 0 50
70 0 70 0 0 -50z m-926 -433 c2 -136 1 -249 -3 -251 -8 -5 -127 164 -123 176
1 4 -2 8 -6 8 -5 0 -26 34 -48 76 -36 70 -38 76 -21 86 10 5 57 43 105 83 48
40 88 72 89 71 1 -1 4 -113 7 -249z m3997 151 l87 -65 -20 -47 c-11 -25 -25
-46 -30 -46 -5 0 -6 -4 -3 -10 3 -5 1 -10 -5 -10 -6 0 -8 -4 -5 -10 3 -5 1
-10 -5 -10 -6 0 -9 -4 -6 -9 4 -5 3 -11 -1 -13 -5 -1 -18 -21 -30 -43 -12 -22
-28 -41 -35 -43 -8 -2 -8 0 2 7 13 9 13 11 -2 11 -21 0 -23 -11 -6 -28 9 -9 9
-12 -1 -12 -7 0 -9 -5 -5 -12 4 -7 4 -10 -1 -6 -4 4 -14 0 -21 -10 -11 -14
-13 -15 -14 -1 0 8 6 21 13 28 7 9 7 11 1 8 -20 -11 -22 13 -24 213 -1 156 2
191 12 183 7 -6 52 -40 99 -75z m-4741 22 l20 -39 -22 -15 c-13 -7 -72 -44
-133 -81 -60 -37 -111 -69 -113 -70 -7 -6 102 -213 135 -259 l33 -45 57 33
c59 33 154 92 302 186 96 62 81 67 153 -54 58 -96 157 -234 238 -331 l67 -80
7 -93 c7 -91 7 -93 -12 -83 -66 35 -297 322 -407 506 -9 15 -30 5 -175 -88
-91 -57 -191 -118 -223 -133 l-59 -29 -19 24 c-47 58 -259 463 -259 494 0 7
368 195 382 196 4 1 17 -17 28 -39z m3800 30 c0 -5 -2 -10 -4 -10 -3 0 -8 5
-11 10 -3 6 -1 10 4 10 6 0 11 -4 11 -10z m1776 -72 c229 -115 213 -96 166
-198 -47 -100 -149 -290 -204 -377 l-39 -62 -92 53 c-51 29 -151 87 -223 129
-72 42 -135 77 -140 77 -5 0 -18 -15 -28 -32 -50 -88 -175 -268 -226 -327 -59
-68 -199 -208 -282 -281 -27 -23 -48 -46 -48 -50 0 -8 181 -264 200 -283 13
-14 163 107 312 252 l139 134 37 -34 c20 -19 39 -35 41 -36 10 -6 -61 -87
-164 -189 -108 -106 -266 -240 -349 -296 l-39 -27 -21 27 c-62 76 -346 475
-346 485 0 3 33 30 73 60 225 170 463 447 602 702 21 39 40 72 41 73 2 4 80
-40 335 -190 l130 -76 34 52 c18 29 57 97 86 151 l52 98 -26 22 c-15 11 -77
48 -137 80 -61 33 -110 63 -110 67 0 20 35 78 48 78 8 0 88 -37 178 -82z
m-2095 -35 c26 -21 48 -43 49 -49 0 -14 -121 -146 -159 -174 l-28 -19 -39 54
-40 53 81 86 c44 47 82 85 83 86 2 0 26 -17 53 -37z m1050 -200 c-10 -4 -11
-7 -1 -13 15 -9 21 -70 7 -70 -5 0 -4 -7 3 -15 10 -12 10 -15 -1 -15 -9 0 -10
-3 -4 -8 12 -9 15 -72 3 -72 -4 0 -8 -5 -8 -11 0 -5 4 -8 8 -5 4 2 8 -11 8
-29 0 -19 -6 -37 -13 -39 -7 -3 -10 1 -7 8 3 8 -4 16 -15 19 -12 3 -21 11 -21
19 0 10 3 9 10 -2 5 -8 10 -11 10 -6 0 5 8 2 18 -5 15 -12 16 -12 5 2 -7 9
-11 18 -8 21 3 3 -1 11 -10 18 -13 11 -15 10 -10 -1 4 -10 -2 -15 -16 -16 -15
-1 -19 2 -14 15 3 9 3 13 -1 10 -3 -4 -16 2 -27 13 -17 16 -19 24 -11 47 6 15
16 26 23 24 7 -1 10 2 6 7 -3 6 9 38 27 71 23 43 35 57 42 49 8 -8 7 -13 -3
-16z m-141 -312 c0 -6 3 -11 8 -11 4 0 15 -13 24 -30 l17 -29 -40 -36 c-21
-19 -42 -35 -47 -35 -14 0 -73 100 -66 113 4 6 21 29 37 49 l30 37 18 -23 c11
-13 19 -29 19 -35z m-4036 -116 c44 -66 74 -120 70 -126 -4 -8 -3 -9 4 -5 7 4
12 3 12 -3 0 -6 -11 -16 -24 -23 -23 -12 -24 -15 -11 -51 14 -41 47 -82 79
-99 15 -8 23 -5 41 18 13 16 21 33 18 39 -3 5 0 5 6 -1 10 -9 4 -20 -23 -50
l-36 -39 -86 85 c-47 47 -124 132 -170 189 l-84 104 57 39 c32 21 61 38 64 38
3 0 40 -52 83 -115z m4799 80 c51 -26 70 -48 50 -57 -5 -1 -25 -24 -46 -50
-21 -26 -43 -53 -50 -60 -7 -7 -24 -29 -39 -49 -15 -20 -63 -74 -107 -120
l-80 -83 -34 39 -34 39 69 80 c38 44 99 128 136 187 37 60 69 107 72 106 3 -1
31 -16 63 -32z m-963 -120 c0 -5 -5 -3 -10 5 -8 13 -12 12 -27 -4 -11 -12 -12
-16 -3 -10 19 14 59 -5 52 -25 -3 -9 0 -11 8 -6 10 6 12 4 7 -9 -4 -10 -3 -15
3 -11 6 3 10 1 10 -5 0 -6 5 -8 10 -5 23 14 8 -13 -22 -41 -150 -139 -513
-333 -758 -404 -41 -12 -93 -28 -115 -35 -37 -12 -226 -46 -337 -60 l-48 -6 0
135 0 136 218 0 c119 0 235 5 257 11 22 6 69 16 105 23 40 7 59 15 50 19 -8 4
1 5 20 3 19 -3 29 -2 21 1 -7 3 31 22 85 42 55 20 125 51 156 69 32 19 62 31
67 28 5 -4 13 -1 17 5 4 8 3 9 -4 5 -7 -4 -12 -5 -12 -3 0 3 17 15 37 27 29
17 34 18 22 4 -13 -16 -12 -16 14 0 27 18 38 33 15 21 -7 -4 3 7 22 24 42 37
63 42 23 5 l-28 -25 32 22 c18 12 30 26 28 30 -3 4 12 21 32 38 36 29 53 28
53 -4z m1194 -26 l44 -32 -33 -46 c-18 -25 -49 -64 -68 -86 l-35 -40 -36 35
c-20 19 -34 40 -31 48 5 12 107 151 112 152 1 0 22 -14 47 -31z m-5292 -54
l57 -75 -40 -32 c-23 -18 -43 -33 -45 -33 -8 0 -114 149 -114 161 0 12 56 52
75 53 6 1 36 -33 67 -74z m257 -277 c94 -90 340 -298 351 -298 3 1 54 70 113
154 107 152 108 154 152 160 24 4 60 4 79 1 l35 -7 -17 -27 c-9 -14 -55 -79
-102 -143 -47 -64 -118 -164 -159 -222 l-74 -106 -36 27 c-229 171 -465 386
-516 472 -5 9 4 24 31 47 21 18 41 33 43 34 2 0 47 -41 100 -92z m380 -13 c1
-6 -15 -28 -35 -50 -30 -34 -34 -36 -28 -15 6 21 5 23 -8 12 -12 -10 -20 -7
-43 14 l-28 25 38 39 38 39 33 -27 c18 -15 33 -32 33 -37z m4015 32 c15 -19
26 -39 26 -44 0 -6 -16 -23 -36 -38 l-36 -27 -29 28 c-16 15 -29 32 -29 38 0
12 60 76 71 76 5 0 19 -15 33 -33z m-2738 -7 l404 0 0 -135 c0 -101 -3 -135
-12 -135 -25 0 -184 29 -273 49 -143 32 -326 96 -461 160 -124 60 -151 79 -93
67 17 -3 213 -6 435 -6z m761 -122 c-4 -68 -7 -131 -7 -141 0 -16 -9 -17 -82
-15 l-83 3 -3 138 -3 137 92 0 92 0 -6 -122z m-1433 -2 c234 -137 430 -217
673 -277 186 -45 323 -68 451 -76 61 -3 112 -8 112 -10 0 -2 -15 -17 -33 -33
-18 -16 -46 -55 -63 -87 l-29 -58 -3 -233 -3 -233 -72 3 -72 3 -3 150 c-2 137
7 238 34 358 6 25 4 27 -23 27 -74 0 -398 77 -552 131 -46 16 -89 29 -95 29
-6 0 -24 -30 -40 -67 -60 -143 -75 -173 -86 -173 -18 0 -91 40 -87 48 29 56
97 222 97 236 0 7 -20 22 -44 34 l-45 21 -19 -32 c-11 -18 -64 -115 -117 -217
-53 -102 -101 -189 -106 -194 -11 -12 -142 53 -259 129 -47 30 -88 55 -92 55
-19 0 4 45 53 104 4 5 56 -21 116 -58 60 -36 113 -66 119 -66 9 0 97 155 158
277 l26 53 -84 54 c-46 30 -86 58 -89 63 -6 9 50 103 61 103 2 0 55 -29 116
-64z m2873 -41 c-2 -5 -40 -32 -85 -60 -44 -27 -81 -56 -82 -62 0 -12 46 -103
132 -261 l40 -73 56 32 c32 18 83 49 114 70 31 22 59 39 62 39 3 0 21 -23 40
-52 l35 -52 -48 -32 c-27 -18 -107 -67 -177 -107 -105 -61 -131 -72 -140 -61
-6 7 -61 110 -123 228 l-112 214 -50 -20 c-27 -11 -49 -24 -49 -27 0 -4 22
-56 50 -117 52 -113 60 -144 36 -144 -7 0 -27 -7 -42 -15 -43 -22 -48 -19 -68
38 -51 146 -70 187 -87 187 -10 0 -55 -13 -101 -29 -105 -38 -308 -89 -418
-105 -166 -25 -161 -23 -154 -54 4 -15 11 -38 16 -52 10 -25 27 -271 28 -387
l0 -63 -69 0 -69 0 -6 198 c-8 270 -25 332 -108 412 l-40 40 75 0 c346 0 913
173 1206 368 l75 50 33 -47 c18 -25 32 -50 30 -56z m-3086 -141 l48 -35 -35
-49 -35 -49 -46 27 c-26 15 -48 32 -50 38 -3 10 54 104 64 104 3 0 27 -16 54
-36z m3213 -20 l29 -45 -22 -15 c-12 -9 -19 -20 -16 -25 3 -5 -2 -6 -11 -2
-13 5 -15 3 -9 -7 5 -9 4 -11 -3 -6 -18 11 -37 -4 -21 -16 11 -8 11 -9 -1 -6
-13 4 -80 95 -80 108 1 7 83 58 95 59 6 1 23 -20 39 -45z m-2524 -268 c44 -15
64 -27 61 -37 -16 -66 -33 -124 -36 -127 -5 -5 -155 28 -155 34 0 15 35 131
43 142 12 15 10 16 87 -12z m1835 2 c2 -7 6 -26 9 -43 2 -16 5 -31 5 -32 1 -2
0 -5 -1 -6 -2 -2 3 -11 11 -20 11 -14 11 -17 0 -17 -11 0 -11 -2 -1 -8 8 -5
-5 -14 -38 -24 -35 -11 -50 -13 -54 -4 -2 6 -5 3 -5 -8 -1 -12 -6 -16 -16 -12
-8 3 -15 0 -15 -6 0 -33 -23 17 -36 78 -11 55 -11 70 -2 74 7 2 33 12 58 21
57 21 79 22 85 7z m-1548 -79 c66 -12 81 -25 67 -56 -4 -10 -8 -26 -9 -35 -2
-10 -4 -21 -5 -25 -1 -5 -3 -17 -4 -27 -1 -18 -36 -34 -36 -16 0 4 -11 8 -25
8 -13 0 -22 -4 -20 -9 3 -4 -14 -2 -37 5 -47 13 -48 18 -33 124 7 48 7 48 102
31z m1267 -36 c3 -27 9 -60 11 -75 4 -20 1 -28 -9 -28 -8 0 -22 -3 -32 -7 -12
-4 -15 -3 -10 5 4 7 3 12 -2 12 -6 0 -12 -7 -16 -15 -3 -9 -18 -15 -35 -15
-16 0 -31 -6 -34 -12 -7 -21 -15 -6 -21 45 -4 26 -11 59 -16 73 -6 14 -10 27
-10 28 0 6 112 33 146 35 18 1 22 -6 28 -46z m-649 31 c38 -15 45 -55 45 -259
l0 -195 -75 0 -75 0 0 207 c0 198 1 208 22 230 21 23 51 29 83 17z m-1258 -90
c102 -46 350 -121 557 -171 l118 -28 -7 -60 c-3 -33 -9 -62 -11 -64 -6 -6
-123 17 -199 39 -33 9 -98 27 -145 40 -83 22 -219 67 -330 110 -30 12 -67 26
-82 32 -32 11 -34 19 -13 53 51 84 42 80 112 49z m2555 -36 c15 -28 27 -52 25
-53 -28 -23 -353 -145 -412 -155 -3 -1 -36 -10 -73 -20 -96 -27 -198 -49 -254
-56 l-48 -6 0 44 c0 24 -3 52 -6 64 -5 18 2 22 78 39 254 55 468 117 578 168
30 14 62 26 70 26 8 1 27 -22 42 -51z"/>
<path d="M5116 8112 c-3 -5 -3 -17 -2 -28 4 -19 17 -20 44 -5 12 7 11 9 -2 14
-9 4 -16 2 -16 -4 0 -6 -5 -7 -10 -4 -8 5 -7 11 1 21 7 9 8 14 1 14 -6 0 -13
-4 -16 -8z"/>
<path d="M4515 8140 c-3 -6 1 -7 9 -4 18 7 21 14 7 14 -6 0 -13 -4 -16 -10z"/>
<path d="M4482 8110 c0 -14 2 -19 5 -12 2 6 2 18 0 25 -3 6 -5 1 -5 -13z"/>
<path d="M5758 8098 c5 -5 16 -8 23 -6 8 3 3 7 -10 11 -17 4 -21 3 -13 -5z"/>
<path d="M5995 8020 c-3 -6 1 -7 9 -4 18 7 21 14 7 14 -6 0 -13 -4 -16 -10z"/>
<path d="M5170 7590 c-8 -5 -10 -10 -5 -11 6 -1 -12 -5 -40 -9 l-50 -7 55 -3
55 -3 -55 -7 -55 -7 53 -1 c54 -2 68 8 60 42 -2 11 -7 13 -18 6z"/>
<path d="M5130 7521 l55 -5 -55 -7 -55 -6 54 1 c34 1 56 6 59 14 3 9 -12 12
-55 10 l-58 -2 55 -5z"/>
<path d="M5103 7483 c15 -2 39 -2 55 0 15 2 2 4 -28 4 -30 0 -43 -2 -27 -4z"/>
<path d="M5103 7463 c15 -2 37 -2 50 0 12 2 0 4 -28 4 -27 0 -38 -2 -22 -4z"/>
<path d="M5088 7443 c7 -3 16 -2 19 1 4 3 -2 6 -13 5 -11 0 -14 -3 -6 -6z"/>
<path d="M5150 7440 c33 -7 31 -8 -20 -10 l-55 -3 45 -7 45 -6 -45 -5 -45 -6
48 -1 c26 -1 47 -6 47 -11 0 -6 -21 -11 -47 -13 l-48 -3 57 -5 57 -5 -1 43
c-1 42 -1 42 -37 41 l-36 -2 35 -7z"/>
<path d="M6586 7087 c3 -10 9 -15 12 -12 3 3 0 11 -7 18 -10 9 -11 8 -5 -6z"/>
<path d="M6616 7060 c-8 -16 -11 -30 -6 -30 4 0 13 14 19 30 5 17 8 30 6 30
-2 0 -10 -13 -19 -30z"/>
<path d="M2825 7179 c-4 -6 -13 -8 -21 -5 -7 3 -15 2 -18 -2 -9 -14 33 -11 45
4 6 8 9 14 6 14 -3 0 -9 -5 -12 -11z"/>
<path d="M7406 7180 c21 -16 43 -30 48 -30 5 0 -10 14 -32 30 -54 39 -68 39
-16 0z"/>
<path d="M7375 7110 c-3 -5 -1 -10 4 -10 6 0 11 5 11 10 0 6 -2 10 -4 10 -3 0
-8 -4 -11 -10z"/>
<path d="M7490 7090 c-12 -8 -10 -10 8 -10 13 0 20 4 17 10 -7 12 -6 12 -25 0z"/>
<path d="M7526 7053 c-6 -14 -5 -15 5 -6 7 7 10 15 7 18 -3 3 -9 -2 -12 -12z"/>
<path d="M7476 6987 c3 -10 9 -15 12 -12 3 3 0 11 -7 18 -10 9 -11 8 -5 -6z"/>
<path d="M4075 6430 c3 -5 8 -10 11 -10 2 0 4 5 4 10 0 6 -5 10 -11 10 -5 0
-7 -4 -4 -10z"/>
<path d="M7153 6349 c-2 -23 3 -25 10 -4 4 8 3 16 -1 19 -4 3 -9 -4 -9 -15z"/>
<path d="M6276 5831 c-4 -5 -2 -12 3 -15 5 -4 12 -2 15 3 4 5 2 12 -3 15 -5 4
-12 2 -15 -3z"/>
<path d="M6210 5680 c0 -5 5 -10 11 -10 5 0 7 5 4 10 -3 6 -8 10 -11 10 -2 0
-4 -4 -4 -10z"/>
<path d="M2254 6145 c-11 -27 2 -37 14 -11 7 16 8 26 1 26 -5 0 -12 -7 -15
-15z"/>
<path d="M2287 6143 c-4 -3 -7 -13 -7 -22 1 -13 3 -13 11 2 11 19 8 33 -4 20z"/>
<path d="M2240 6086 c0 -8 -3 -23 -6 -33 -5 -15 -4 -15 5 -3 9 13 11 13 11 1
0 -11 4 -9 14 5 8 10 12 21 10 24 -3 2 -10 -2 -15 -10 -8 -11 -9 -10 -4 8 4
13 2 22 -4 22 -6 0 -11 -6 -11 -14z"/>
<path d="M2245 5930 c-8 -14 3 -30 21 -30 8 0 12 5 9 10 -4 6 -12 7 -18 3 -7
-4 -6 0 2 10 8 10 9 17 3 17 -6 0 -14 -4 -17 -10z"/>
<path d="M7946 6115 c9 -13 17 -30 18 -37 7 -30 19 -46 39 -52 20 -5 21 -4 5
8 -22 16 -23 30 -2 22 9 -3 12 -2 9 5 -4 5 -15 7 -26 4 -17 -6 -18 -3 -9 19 8
21 7 24 -7 19 -12 -5 -14 -1 -9 13 4 15 1 20 -14 21 -18 2 -19 0 -4 -22z"/>
<path d="M8012 5962 c-8 -6 -2 -9 18 -9 20 0 26 3 18 9 -7 4 -15 8 -18 8 -3 0
-11 -4 -18 -8z"/>
<path d="M7970 5920 c0 -5 5 -10 11 -10 5 0 7 5 4 10 -3 6 -8 10 -11 10 -2 0
-4 -4 -4 -10z"/>
<path d="M5954 5746 c1 -8 5 -18 8 -22 4 -3 5 1 4 10 -1 8 -5 18 -8 22 -4 3
-5 -1 -4 -10z"/>
<path d="M5933 5715 c0 -8 4 -12 9 -9 5 3 6 10 3 15 -9 13 -12 11 -12 -6z"/>
<path d="M5963 5655 c0 -8 4 -12 9 -9 5 3 6 10 3 15 -9 13 -12 11 -12 -6z"/>
<path d="M5809 5483 c-13 -16 -12 -17 4 -4 9 7 17 15 17 17 0 8 -8 3 -21 -13z"/>
<path d="M5755 5440 c-3 -6 1 -7 9 -4 18 7 21 14 7 14 -6 0 -13 -4 -16 -10z"/>
<path d="M7452 5643 l-44 -33 51 0 c53 0 56 3 43 46 -7 20 -9 19 -50 -13z m38
-14 c0 -5 -7 -9 -15 -9 -15 0 -20 12 -9 23 8 8 24 -1 24 -14z"/>
<path d="M2210 5288 c-67 -34 -93 -79 -88 -153 6 -91 53 -145 146 -166 63 -14
144 28 177 92 40 76 4 185 -74 226 -56 29 -104 29 -161 1z m124 -107 c21 -23
14 -83 -8 -75 -7 3 -24 0 -38 -5 -31 -12 -48 2 -48 38 0 53 60 80 94 42z"/>
<path d="M7874 5291 c-70 -32 -113 -113 -99 -188 7 -39 55 -97 98 -120 64 -33
116 -26 185 24 101 75 81 234 -36 284 -55 24 -96 24 -148 0z m102 -99 c30 -20
41 -94 11 -75 -6 4 -8 0 -4 -11 5 -12 3 -15 -6 -9 -19 12 -37 12 -37 1 0 -6 7
-8 15 -4 8 3 15 1 15 -4 0 -6 -12 -10 -26 -10 -14 0 -23 4 -19 10 3 6 -3 10
-14 10 -20 0 -26 14 -21 50 5 38 55 63 86 42z"/>
<path d="M1805 5120 c-3 -5 -1 -10 4 -10 6 0 11 5 11 10 0 6 -2 10 -4 10 -3 0
-8 -4 -11 -10z"/>
<path d="M8455 5140 c3 -5 8 -10 11 -10 2 0 4 5 4 10 0 6 -5 10 -11 10 -5 0
-7 -4 -4 -10z"/>
<path d="M8378 4723 c6 -2 18 -2 25 0 6 3 1 5 -13 5 -14 0 -19 -2 -12 -5z"/>
<path d="M1800 4940 c0 -5 4 -10 9 -10 6 0 13 5 16 10 3 6 -1 10 -9 10 -9 0
-16 -4 -16 -10z"/>
<path d="M1815 4870 c-3 -6 1 -7 9 -4 18 7 21 14 7 14 -6 0 -13 -4 -16 -10z"/>
<path d="M6227 4039 c7 -7 15 -10 18 -7 3 3 -2 9 -12 12 -14 6 -15 5 -6 -5z"/>
<path d="M2226 4282 c-2 -4 -1 -14 4 -22 7 -11 9 -9 7 8 -1 24 -3 26 -11 14z"/>
<path d="M2255 4232 c4 -7 2 -18 -4 -25 -7 -10 -5 -13 10 -14 23 -2 24 7 3 33
-8 10 -13 13 -9 6z"/>
<path d="M2254 4160 c0 -13 4 -16 10 -10 7 7 7 13 0 20 -6 6 -10 3 -10 -10z"/>
<path d="M2283 4148 c0 -18 2 -27 5 -20 2 6 8 9 14 6 8 -5 -5 29 -17 44 -1 1
-2 -13 -2 -30z"/>
<path d="M2266 4093 c-6 -14 -5 -15 5 -6 7 7 10 15 7 18 -3 3 -9 -2 -12 -12z"/>
<path d="M7976 4152 c-3 -5 1 -9 9 -9 8 0 12 4 9 9 -3 4 -7 8 -9 8 -2 0 -6 -4
-9 -8z"/>
<path d="M7937 4119 c7 -7 15 -10 18 -7 3 3 -2 9 -12 12 -14 6 -15 5 -6 -5z"/>
<path d="M7990 4126 c0 -2 8 -10 18 -17 15 -13 16 -12 3 4 -13 16 -21 21 -21
13z"/>
<path d="M7994 4092 c3 -5 0 -13 -6 -15 -9 -4 -10 -6 -1 -6 17 -1 25 16 12 25
-7 4 -9 3 -5 -4z"/>
<path d="M6930 3596 c0 -2 7 -7 16 -10 8 -3 12 -2 9 4 -6 10 -25 14 -25 6z"/>
<path d="M6920 3535 c-7 -9 -11 -17 -9 -20 3 -2 10 5 17 15 14 24 10 26 -8 5z"/>
<path d="M6963 3535 c0 -8 4 -12 9 -9 5 3 6 10 3 15 -9 13 -12 11 -12 -6z"/>
<path d="M6930 3516 c0 -2 7 -7 16 -10 8 -3 12 -2 9 4 -6 10 -25 14 -25 6z"/>
<path d="M7469 3193 c-13 -16 -12 -17 4 -4 16 13 21 21 13 21 -2 0 -10 -8 -17
-17z"/>
<path d="M7398 3133 c7 -3 16 -2 19 1 4 3 -2 6 -13 5 -11 0 -14 -3 -6 -6z"/>
<path d="M5130 2850 l55 -7 -54 -1 c-34 -1 -51 -6 -45 -11 14 -14 104 -1 104
15 0 11 -15 14 -57 12 l-58 -1 55 -7z"/>
<path d="M5130 2810 l-55 -7 51 -1 c39 -2 51 -6 51 -18 0 -12 -10 -15 -43 -13
-24 2 -46 0 -50 -4 -4 -4 18 -7 49 -7 57 0 57 0 57 30 0 17 -1 29 -2 28 -2 -1
-28 -4 -58 -8z"/>
<path d="M5108 2743 c18 -2 45 -2 60 0 15 2 0 4 -33 4 -33 0 -45 -2 -27 -4z"/>
<path d="M5130 2710 l55 -7 -52 -1 c-29 -1 -53 -6 -53 -11 0 -4 23 -6 50 -3
33 3 50 1 50 -7 0 -6 -21 -12 -52 -13 l-53 -1 55 -7 55 -7 -55 -3 c-51 -2 -53
-3 -20 -10 l35 -7 -32 -2 c-56 -2 -36 -16 22 -16 l55 0 0 53 0 52 -57 -2 -58
-1 55 -7z"/>
<path d="M6710 2481 c0 -6 4 -13 10 -16 6 -3 7 1 4 9 -7 18 -14 21 -14 7z"/>
<path d="M4215 2231 c-3 -5 -2 -12 3 -15 5 -3 9 1 9 9 0 17 -3 19 -12 6z"/>
<path d="M4191 2164 c0 -11 3 -14 6 -6 3 7 2 16 -1 19 -3 4 -6 -2 -5 -13z"/>
<path d="M4483 2125 c-3 -9 -3 -18 -1 -21 3 -3 8 4 11 16 6 23 -1 27 -10 5z"/>
<path d="M4540 2101 c0 -6 9 -9 19 -8 11 0 17 5 15 9 -7 11 -34 10 -34 -1z"/>
<path d="M5710 2137 c0 -3 12 -12 26 -22 15 -9 23 -12 20 -6 -7 11 -46 35 -46
28z"/>
<path d="M5105 2136 c-27 -20 -13 -46 22 -40 40 7 56 23 42 40 -15 18 -40 18
-64 0z"/>
</g>
</svg>
